<?xml version="1.0" encoding="UTF-8" standalone="no"?>
<!-- Created with Inkscape (http://www.inkscape.org/) -->

<svg
   xmlns:dc="http://purl.org/dc/elements/1.1/"
   xmlns:cc="http://creativecommons.org/ns#"
   xmlns:rdf="http://www.w3.org/1999/02/22-rdf-syntax-ns#"
   xmlns:svg="http://www.w3.org/2000/svg"
   xmlns="http://www.w3.org/2000/svg"
   xmlns:sodipodi="http://sodipodi.sourceforge.net/DTD/sodipodi-0.dtd"
   xmlns:inkscape="http://www.inkscape.org/namespaces/inkscape"
   width="750"
   height="750"
   viewBox="0 0 750.00001 750.00001"
   id="svg2"
   version="1.1"
   inkscape:version="0.91 r13725"
   sodipodi:docname="involvist_icon_goshawk_750x750.svg">
  <defs
     id="defs4" />
  <sodipodi:namedview
     id="base"
     pagecolor="#ffffff"
     bordercolor="#666666"
     borderopacity="1.0"
     inkscape:pageopacity="0.0"
     inkscape:pageshadow="2"
     inkscape:zoom="0.8117387"
     inkscape:cx="346.43678"
     inkscape:cy="329.09289"
     inkscape:document-units="px"
     inkscape:current-layer="layer2"
     showgrid="false"
     units="px"
     inkscape:showpageshadow="false"
     inkscape:window-width="1799"
     inkscape:window-height="957"
     inkscape:window-x="0"
     inkscape:window-y="0"
     inkscape:window-maximized="0" />
  <metadata
     id="metadata7">
    <rdf:RDF>
      <cc:Work
         rdf:about="">
        <dc:format>image/svg+xml</dc:format>
        <dc:type
           rdf:resource="http://purl.org/dc/dcmitype/StillImage" />
        <dc:title></dc:title>
      </cc:Work>
    </rdf:RDF>
  </metadata>
  <g
     inkscape:label="Layer 1"
     inkscape:groupmode="layer"
     id="layer1"
     transform="translate(0,-302.36216)" />
  <g
     inkscape:groupmode="layer"
     id="layer2"
     inkscape:label="bg">
    <rect
       style="opacity:1;fill:#b984d3;fill-opacity:1;stroke:#b984d3;stroke-width:40.00000381;stroke-linecap:round;stroke-linejoin:miter;stroke-miterlimit:4;stroke-dasharray:none;stroke-opacity:1"
       id="rect4166"
       width="710.98486"
       height="709.46973"
       x="19.803032"
       y="20.939394" />
  </g>
  <g
     inkscape:groupmode="layer"
     id="layer4"
     inkscape:label="hawk2">
    <path
       style="color:#000000;font-style:normal;font-variant:normal;font-weight:normal;font-stretch:normal;font-size:medium;line-height:normal;font-family:sans-serif;text-indent:0;text-align:start;text-decoration:none;text-decoration-line:none;text-decoration-style:solid;text-decoration-color:#000000;letter-spacing:normal;word-spacing:normal;text-transform:none;direction:ltr;block-progression:tb;writing-mode:lr-tb;baseline-shift:baseline;text-anchor:start;white-space:normal;clip-rule:nonzero;display:inline;overflow:visible;visibility:visible;opacity:1;isolation:auto;mix-blend-mode:normal;color-interpolation:sRGB;color-interpolation-filters:linearRGB;solid-color:#000000;solid-opacity:1;fill:#ffffff;fill-opacity:1;fill-rule:nonzero;stroke:none;stroke-width:20;stroke-linecap:round;stroke-linejoin:miter;stroke-miterlimit:4;stroke-dasharray:none;stroke-dashoffset:0;stroke-opacity:1;color-rendering:auto;image-rendering:auto;shape-rendering:auto;text-rendering:auto;enable-background:accumulate"
       d="m 700.53721,521.72957 c 1.23502,-4.36831 1.47677,-8.9992 1.79984,-13.59619 2.58448,-36.7759 -13.5082,-71.48354 -42.63017,-88.7936 -5.33247,-3.25223 -12.25056,-1.4509 -15.38905,4.00697 -3.1385,5.45786 -1.28897,12.47084 4.1142,15.6001 20.90835,12.42791 33.66762,38.47258 31.62292,67.56745 -2.04468,29.09486 -18.73219,55.27145 -41.85556,67.0615 -5.60671,2.76067 -12.1248,0.31628 -9.33212,5.9779 2.79267,5.66163 30.64368,-3.11064 36.17304,-6.02812 23.63726,-19.40468 26.46327,-19.84346 35.4969,-51.79601 z"
       id="path4176"
       inkscape:connector-curvature="0"
       sodipodi:nodetypes="sscscscscs" />
  </g>
  <g
     inkscape:groupmode="layer"
     id="layer3"
     inkscape:label="hawk1"
     style="display:inline">
    <path
       style="color:#000000;font-style:normal;font-variant:normal;font-weight:normal;font-stretch:normal;font-size:medium;line-height:normal;font-family:sans-serif;text-indent:0;text-align:start;text-decoration:none;text-decoration-line:none;text-decoration-style:solid;text-decoration-color:#000000;letter-spacing:normal;word-spacing:normal;text-transform:none;direction:ltr;block-progression:tb;writing-mode:lr-tb;baseline-shift:baseline;text-anchor:start;white-space:normal;clip-rule:nonzero;display:inline;overflow:visible;visibility:visible;opacity:1;isolation:auto;mix-blend-mode:normal;color-interpolation:sRGB;color-interpolation-filters:linearRGB;solid-color:#000000;solid-opacity:1;fill:#ffffff;fill-opacity:1;fill-rule:nonzero;stroke:none;stroke-width:20.00004387;stroke-linecap:round;stroke-linejoin:miter;stroke-miterlimit:4;stroke-dasharray:none;stroke-dashoffset:0;stroke-opacity:1;color-rendering:auto;image-rendering:auto;shape-rendering:auto;text-rendering:auto;enable-background:accumulate"
       d="m 519.71068,254.92056 c -39.13811,-24.47085 -75.23524,-46.28246 -114.08294,-55.29172 -38.84771,-9.00924 -75.24632,-9.49 -104.58805,0.15311 -4.94332,1.54138 -7.64738,6.78897 -6.00599,11.65543 1.64139,4.86647 6.99237,7.4666 11.8851,5.77516 24.60629,-8.08683 57.8896,-7.56305 94.38977,0.83999 36.50017,8.40304 71.01754,28.95922 108.49133,52.38946 37.47379,23.43024 73.96794,47.31013 96.30482,75.65282 22.33687,28.34269 35.71614,56.87431 37.35952,81.06026 0.27977,5.11224 4.73152,9.01725 9.89643,8.681 5.1649,-0.33625 9.04916,-4.78396 8.63483,-9.88744 -2.00838,-29.5579 -13.43968,-63.9682 -40.69528,-91.46627 -30.05096,-30.3183 -62.45143,-55.09097 -101.58954,-79.5618 z"
       id="path4173"
       inkscape:connector-curvature="0"
       sodipodi:nodetypes="sscscssscscss" />
    <path
       style="color:#000000;font-style:normal;font-variant:normal;font-weight:normal;font-stretch:normal;font-size:medium;line-height:normal;font-family:sans-serif;text-indent:0;text-align:start;text-decoration:none;text-decoration-line:none;text-decoration-style:solid;text-decoration-color:#000000;letter-spacing:normal;word-spacing:normal;text-transform:none;direction:ltr;block-progression:tb;writing-mode:lr-tb;baseline-shift:baseline;text-anchor:start;white-space:normal;clip-rule:nonzero;display:inline;overflow:visible;visibility:visible;opacity:1;isolation:auto;mix-blend-mode:normal;color-interpolation:sRGB;color-interpolation-filters:linearRGB;solid-color:#000000;solid-opacity:1;fill:#ffffff;fill-opacity:1;fill-rule:nonzero;stroke:none;stroke-width:12;stroke-linecap:round;stroke-linejoin:miter;stroke-miterlimit:4;stroke-dasharray:none;stroke-dashoffset:0;stroke-opacity:1;color-rendering:auto;image-rendering:auto;shape-rendering:auto;text-rendering:auto;enable-background:accumulate"
       d="m 223.74411,132.38847 c -30.23992,-19.93621 -76.50304,-48.136851 -96.35307,-53.664172 -4.96611,-1.439322 -2.85829,9.463538 -3.88035,13.302207 -1.02205,3.838663 -0.64397,12.500905 4.35012,13.835115 13.92594,3.87773 56.49171,18.11041 85.58413,37.29012 29.0924,19.1797 54.94272,40.33979 66.58089,53.83878 3.01291,3.61761 8.81637,4.95775 12.87649,2.97347 4.06012,-1.98429 4.79739,-6.52105 1.6358,-10.066 -14.05466,-16.30186 -40.55409,-37.5733 -70.79401,-57.50952 z"
       id="path4203"
       inkscape:connector-curvature="0"
       sodipodi:nodetypes="scscscscs" />
  </g>
  <g
     style="display:inline"
     inkscape:label="hawk1 copy"
     id="g4228"
     inkscape:groupmode="layer">
    <path
       sodipodi:nodetypes="scscscscs"
       inkscape:connector-curvature="0"
       id="path4232"
       d="m 209.84291,165.01513 c -26.57923,-13.24524 -67.03975,-31.67566 -83.82202,-34.34341 -4.20358,-0.71246 -1.51427,7.79534 -2.01574,10.94533 -0.50147,3.14997 0.57075,10.02294 4.78806,10.64914 11.77372,1.87157 47.97041,9.48975 73.54105,22.23238 25.57061,12.7426 48.65375,27.34814 59.39548,37.09083 2.79164,2.62024 7.67393,3.18027 10.83265,1.24259 3.15868,-1.93769 3.36497,-5.61929 0.45765,-8.16857 -12.97207,-11.76561 -36.59792,-26.40306 -63.17713,-39.64828 z"
       style="color:#000000;font-style:normal;font-variant:normal;font-weight:normal;font-stretch:normal;font-size:medium;line-height:normal;font-family:sans-serif;text-indent:0;text-align:start;text-decoration:none;text-decoration-line:none;text-decoration-style:solid;text-decoration-color:#000000;letter-spacing:normal;word-spacing:normal;text-transform:none;direction:ltr;block-progression:tb;writing-mode:lr-tb;baseline-shift:baseline;text-anchor:start;white-space:normal;clip-rule:nonzero;display:inline;overflow:visible;visibility:visible;opacity:1;isolation:auto;mix-blend-mode:normal;color-interpolation:sRGB;color-interpolation-filters:linearRGB;solid-color:#000000;solid-opacity:1;fill:#ffffff;fill-opacity:1;fill-rule:nonzero;stroke:none;stroke-width:12;stroke-linecap:round;stroke-linejoin:miter;stroke-miterlimit:4;stroke-dasharray:none;stroke-dashoffset:0;stroke-opacity:1;color-rendering:auto;image-rendering:auto;shape-rendering:auto;text-rendering:auto;enable-background:accumulate" />
  </g>
  <g
     inkscape:groupmode="layer"
     id="g4234"
     inkscape:label="hawk1 copy copy"
     style="display:inline" />
  <g
     inkscape:label="hawk2 copy"
     id="g4199"
     inkscape:groupmode="layer"
     style="display:inline" />
  <g
     inkscape:groupmode="layer"
     id="layer6"
     inkscape:label="hawkeye1"
     style="display:none">
    <path
       style="opacity:1;fill:#ffffff;fill-opacity:0;stroke:#ffffff;stroke-width:12;stroke-linecap:round;stroke-linejoin:miter;stroke-miterlimit:4;stroke-dasharray:none;stroke-opacity:1"
       id="path4239"
       sodipodi:type="arc"
       sodipodi:cx="-540.86145"
       sodipodi:cy="170.31747"
       sodipodi:rx="61.510475"
       sodipodi:ry="27.959309"
       sodipodi:start="4.0276556"
       sodipodi:end="5.9301401"
       sodipodi:open="true"
       d="m -579.76477,148.66054 a 61.510475,27.959309 0 0 1 55.10304,-5.3153 61.510475,27.959309 0 0 1 41.51704,17.30511"
       transform="matrix(-0.91332354,-0.40723471,0.40723471,-0.91332354,0,0)" />
  </g>
  <g
     inkscape:groupmode="layer"
     id="layer7"
     inkscape:label="hawkeye2">
    <path
       style="color:#000000;font-style:normal;font-variant:normal;font-weight:normal;font-stretch:normal;font-size:medium;line-height:normal;font-family:sans-serif;text-indent:0;text-align:start;text-decoration:none;text-decoration-line:none;text-decoration-style:solid;text-decoration-color:#000000;letter-spacing:normal;word-spacing:normal;text-transform:none;direction:ltr;block-progression:tb;writing-mode:lr-tb;baseline-shift:baseline;text-anchor:start;white-space:normal;clip-rule:nonzero;display:inline;overflow:visible;visibility:visible;opacity:1;isolation:auto;mix-blend-mode:normal;color-interpolation:sRGB;color-interpolation-filters:linearRGB;solid-color:#000000;solid-opacity:1;fill:#ffffff;fill-opacity:1;fill-rule:nonzero;stroke:none;stroke-width:12;stroke-linecap:round;stroke-linejoin:miter;stroke-miterlimit:4;stroke-dasharray:none;stroke-dashoffset:0;stroke-opacity:1;color-rendering:auto;image-rendering:auto;shape-rendering:auto;text-rendering:auto;enable-background:accumulate"
       d="m 493.24399,334.54413 c -27.20349,7.61451 -43.69797,35.73733 -36.36923,62.80228 7.32873,27.06496 35.65632,42.64169 62.85979,35.02718 27.20348,-7.6145 43.70008,-35.73792 36.37134,-62.80288 -3.66436,-13.53248 -14.65925,-15.92656 -26.0582,-22.2519 -11.39895,-6.32533 -23.20197,-16.58193 -36.8037,-12.77468 z m 3.55754,13.13801 c 10.23174,-2.86394 16.12941,6.39308 24.49998,11.02196 8.37056,4.62889 19.21401,4.62961 21.88232,14.48361 5.33659,19.70801 -6.54334,40.31995 -27.00683,46.04787 -20.46347,5.7279 -41.04358,-5.79817 -46.38017,-25.50617 -5.3366,-19.70801 6.54123,-40.31935 27.0047,-46.04727 z"
       id="path4244"
       inkscape:connector-curvature="0"
       sodipodi:nodetypes="ssssssssssss" />
  </g>
</svg>
